<?xml version="1.0" standalone="no"?><!DOCTYPE svg PUBLIC "-//W3C//DTD SVG 1.1//EN" "http://www.w3.org/Graphics/SVG/1.1/DTD/svg11.dtd"><svg width="200" height="200" viewBox="0 0 200 200" version="1.1" xmlns="http://www.w3.org/2000/svg" xmlns:xlink="http://www.w3.org/1999/xlink"><defs><style type="text/css"><![CDATA[
@font-face { font-family: ifont; src: url("//at.alicdn.com/t/font_1442373896_4754455.eot?#iefix") format("embedded-opentype"), url("//at.alicdn.com/t/font_1442373896_4754455.woff") format("woff"), url("//at.alicdn.com/t/font_1442373896_4754455.ttf") format("truetype"), url("//at.alicdn.com/t/font_1442373896_4754455.svg#ifont") format("svg"); }

]]></style></defs><g class="transform-group"><g transform="scale(0.1953125, 0.1953125)"><path d="M839.68 675.84l-81.92 0 0-81.92 81.92 0c45.24032 0 81.92-36.67968 81.92-81.92s-36.67968-81.92-81.92-81.92L512 430.08l0-81.92 327.68 0c90.48064 0 163.84 73.35936 163.84 163.84C1003.52 602.48064 930.16064 675.84 839.68 675.84zM593.92 184.32c0-45.24032-36.67968-81.92-81.92-81.92s-81.92 36.67968-81.92 81.92l0 327.68-81.92 0L348.16 184.32c0-90.48064 73.35936-163.84 163.84-163.84s163.84 73.35936 163.84 163.84l0 81.92-81.92 0L593.92 184.32zM102.4 512c0 45.24032 36.67968 81.92 81.92 81.92l327.68 0 0 81.92L184.32 675.84c-90.48064 0-163.84-73.35936-163.84-163.84 0-90.48064 73.35936-163.84 163.84-163.84l81.92 0 0 81.92L184.32 430.08C139.07968 430.08 102.4 466.75968 102.4 512zM430.08 839.68c0 45.24032 36.67968 81.92 81.92 81.92s81.92-36.67968 81.92-81.92L593.92 512l81.92 0 0 327.68c0 90.48064-73.35936 163.84-163.84 163.84s-163.84-73.35936-163.84-163.84l0-81.92 81.92 0L430.08 839.68z" fill="#11cd6e"></path></g></g></svg>