<?xml version="1.0" standalone="no"?><!DOCTYPE svg PUBLIC "-//W3C//DTD SVG 1.1//EN" "http://www.w3.org/Graphics/SVG/1.1/DTD/svg11.dtd"><svg width="501.953125" height="200" viewBox="0 0 501.953125 200" version="1.1" xmlns="http://www.w3.org/2000/svg" xmlns:xlink="http://www.w3.org/1999/xlink"><defs><style type="text/css"><![CDATA[
@font-face { font-family: ifont; src: url("//at.alicdn.com/t/font_1442373896_4754455.eot?#iefix") format("embedded-opentype"), url("//at.alicdn.com/t/font_1442373896_4754455.woff") format("woff"), url("//at.alicdn.com/t/font_1442373896_4754455.ttf") format("truetype"), url("//at.alicdn.com/t/font_1442373896_4754455.svg#ifont") format("svg"); }

]]></style></defs><g class="transform-group"><g transform="scale(0.1953125, 0.1953125)"><path d="M2317.931425 848.44794 1981.322428 417.781692l0 430.666247L1784.510852 848.44794 1784.510852 89.547656l191.979868 0 335.642655 410.050959L2312.133375 89.547656l198.100031 0 0 758.578169L2317.931425 848.125826 2317.931425 848.44794zM1320.98899 873.250708c-207.441334 0-375.584775-182.638566-375.584775-408.44039S1113.547656 56.692042 1320.98899 56.692042c207.441334 0 375.584775 182.638566 375.584775 408.44039S1528.430324 873.250708 1320.98899 873.250708L1320.98899 873.250708zM1331.296634 245.128657c-109.518717 0-198.100031 93.735137-198.100031 209.374017 0 115.63888 88.581315 209.374017 198.100031 209.374017 109.518717 0 198.100031-93.735137 198.100031-209.374017C1529.396666 338.863794 1440.815351 245.128657 1331.296634 245.128657L1331.296634 245.128657zM569.81944 894.188109l-104.364895-188.436615c0 0 153.004089 7.086505 187.792388-83.749607 34.788298-90.836112-136.576282-203.575967-145.917584-272.186222-21.259516-258.013212 271.21988-293.123624 271.21988-293.123624l83.427493 167.499214c0 0-110.162944-35.110412-145.917584 62.812205-24.802768 109.84083 137.22051 160.412708 145.917584 314.061025C870.673797 820.746147 569.81944 894.188109 569.81944 894.188109L569.81944 894.188109zM63.134319 831.375904c0 0 104.364895-56.047814 104.364895-209.374017L167.499214 90.191884l229.345077 0 0 553.069519c0 0 38.653665 147.20604-145.917584 334.998427C250.282479 980.192513 63.134319 831.375904 63.134319 831.375904L63.134319 831.375904zM63.134319 831.375904" fill="#11cd6e"></path></g></g></svg>